<svg width="168" height="44" viewBox="0 0 168 44" fill="none" xmlns="http://www.w3.org/2000/svg">
<rect width="168" height="44" fill="black" fill-opacity="0"/>
<rect width="161" height="44" rx="10" fill="#E5E5E5"/>
<path d="M54.6377 24.6865H50.3662L49.3379 28H47.7119L51.8428 15.2031H53.2051L57.2656 28H55.6484L54.6377 24.6865ZM50.8057 23.2715H54.207L52.5195 17.7168L50.8057 23.2715ZM61.1152 22.8672V28H59.4893V15.2031H63.6377C64.2119 15.2148 64.7539 15.3057 65.2637 15.4756C65.7793 15.6455 66.2305 15.8916 66.6172 16.2139C67.0039 16.5361 67.3086 16.9346 67.5312 17.4092C67.7598 17.8838 67.874 18.4287 67.874 19.0439C67.874 19.6592 67.7598 20.2041 67.5312 20.6787C67.3086 21.1475 67.0039 21.543 66.6172 21.8652C66.2305 22.1875 65.7793 22.4336 65.2637 22.6035C64.7539 22.7734 64.2119 22.8613 63.6377 22.8672H61.1152ZM61.1152 21.5312H63.6377C64.0127 21.5254 64.3584 21.4668 64.6748 21.3555C64.9912 21.2383 65.2666 21.0742 65.501 20.8633C65.7354 20.6523 65.917 20.3975 66.0459 20.0986C66.1807 19.7939 66.248 19.4482 66.248 19.0615C66.248 18.6748 66.1807 18.3262 66.0459 18.0156C65.917 17.7051 65.7354 17.4414 65.501 17.2246C65.2725 17.0078 64.9971 16.8408 64.6748 16.7236C64.3584 16.6064 64.0127 16.5449 63.6377 16.5391H61.1152V21.5312ZM71.9258 22.8672V28H70.2998V15.2031H74.4482C75.0225 15.2148 75.5645 15.3057 76.0742 15.4756C76.5898 15.6455 77.041 15.8916 77.4277 16.2139C77.8145 16.5361 78.1191 16.9346 78.3418 17.4092C78.5703 17.8838 78.6846 18.4287 78.6846 19.0439C78.6846 19.6592 78.5703 20.2041 78.3418 20.6787C78.1191 21.1475 77.8145 21.543 77.4277 21.8652C77.041 22.1875 76.5898 22.4336 76.0742 22.6035C75.5645 22.7734 75.0225 22.8613 74.4482 22.8672H71.9258ZM71.9258 21.5312H74.4482C74.8232 21.5254 75.1689 21.4668 75.4854 21.3555C75.8018 21.2383 76.0771 21.0742 76.3115 20.8633C76.5459 20.6523 76.7275 20.3975 76.8564 20.0986C76.9912 19.7939 77.0586 19.4482 77.0586 19.0615C77.0586 18.6748 76.9912 18.3262 76.8564 18.0156C76.7275 17.7051 76.5459 17.4414 76.3115 17.2246C76.083 17.0078 75.8076 16.8408 75.4854 16.7236C75.1689 16.6064 74.8232 16.5449 74.4482 16.5391H71.9258V21.5312ZM98.4688 24.7656C98.4688 24.373 98.3779 24.042 98.1963 23.7725C98.0205 23.5029 97.792 23.2773 97.5107 23.0957C97.2295 22.9082 96.9189 22.7529 96.5791 22.6299C96.2451 22.5068 95.9229 22.3955 95.6123 22.2959C95.1611 22.1494 94.7012 21.9736 94.2324 21.7686C93.7695 21.5635 93.3447 21.3115 92.958 21.0127C92.5771 20.7139 92.2637 20.3623 92.0176 19.958C91.7773 19.5479 91.6572 19.0674 91.6572 18.5166C91.6572 17.9658 91.7773 17.4736 92.0176 17.04C92.2637 16.6064 92.583 16.2402 92.9756 15.9414C93.3682 15.6426 93.8135 15.417 94.3115 15.2646C94.8096 15.1064 95.3105 15.0273 95.8145 15.0273C96.3711 15.0273 96.9072 15.1211 97.4229 15.3086C97.9385 15.4902 98.3955 15.748 98.7939 16.082C99.1924 16.416 99.5117 16.8203 99.752 17.2949C99.9922 17.7695 100.118 18.2998 100.13 18.8857H98.46C98.4131 18.5166 98.3223 18.1826 98.1875 17.8838C98.0527 17.5791 97.874 17.3184 97.6514 17.1016C97.4287 16.8848 97.1621 16.7178 96.8516 16.6006C96.5469 16.4775 96.2012 16.416 95.8145 16.416C95.5039 16.416 95.1992 16.46 94.9004 16.5479C94.6074 16.6357 94.3438 16.7676 94.1094 16.9434C93.8809 17.1191 93.6963 17.3359 93.5557 17.5938C93.4209 17.8516 93.3535 18.1504 93.3535 18.4902C93.3594 18.8594 93.4531 19.1729 93.6348 19.4307C93.8164 19.6826 94.0449 19.8965 94.3203 20.0723C94.6016 20.248 94.9033 20.3945 95.2256 20.5117C95.5537 20.6289 95.8613 20.7314 96.1484 20.8193C96.4648 20.9189 96.7842 21.0332 97.1064 21.1621C97.4287 21.2852 97.7393 21.4287 98.0381 21.5928C98.3369 21.7568 98.6152 21.9414 98.873 22.1465C99.1309 22.3516 99.3564 22.5859 99.5498 22.8496C99.7432 23.1074 99.8926 23.3945 99.998 23.7109C100.109 24.0215 100.165 24.3672 100.165 24.748C100.165 25.3223 100.036 25.8232 99.7783 26.251C99.5264 26.6787 99.1982 27.0361 98.7939 27.3232C98.3896 27.6045 97.9326 27.8184 97.4229 27.9648C96.9131 28.1055 96.4033 28.1758 95.8936 28.1758C95.3252 28.1758 94.7686 28.0879 94.2236 27.9121C93.6787 27.7363 93.1895 27.4844 92.7559 27.1562C92.3281 26.8223 91.9795 26.418 91.71 25.9434C91.4404 25.4629 91.2969 24.918 91.2793 24.3086H92.9404C92.9932 24.707 93.1016 25.0615 93.2656 25.3721C93.4297 25.6768 93.6406 25.9375 93.8984 26.1543C94.1562 26.3652 94.4521 26.5264 94.7861 26.6377C95.126 26.7432 95.4951 26.7959 95.8936 26.7959C96.21 26.7959 96.5205 26.7578 96.8252 26.6816C97.1357 26.5996 97.4111 26.4766 97.6514 26.3125C97.8916 26.1426 98.0879 25.9316 98.2402 25.6797C98.3926 25.4219 98.4688 25.1172 98.4688 24.7656ZM111.213 16.5918H107.258V28H105.676V16.5918H101.721V15.2031H111.213V16.5918ZM121.716 22.3398C121.71 22.7969 121.669 23.2598 121.593 23.7285C121.522 24.1914 121.411 24.6396 121.259 25.0732C121.106 25.5068 120.91 25.9111 120.67 26.2861C120.436 26.6611 120.154 26.9893 119.826 27.2705C119.498 27.5518 119.12 27.7744 118.692 27.9385C118.271 28.0967 117.796 28.1758 117.269 28.1758C116.741 28.1758 116.264 28.0967 115.836 27.9385C115.414 27.7744 115.039 27.5518 114.711 27.2705C114.383 26.9893 114.099 26.6611 113.858 26.2861C113.618 25.9053 113.419 25.498 113.261 25.0645C113.108 24.6309 112.994 24.1826 112.918 23.7197C112.842 23.2568 112.801 22.7969 112.795 22.3398V20.8809C112.801 20.4238 112.839 19.9639 112.909 19.501C112.985 19.0322 113.1 18.5811 113.252 18.1475C113.41 17.7139 113.606 17.3096 113.841 16.9346C114.081 16.5537 114.365 16.2227 114.693 15.9414C115.021 15.6543 115.396 15.4316 115.818 15.2734C116.246 15.1094 116.724 15.0273 117.251 15.0273C117.778 15.0273 118.256 15.1094 118.684 15.2734C119.111 15.4316 119.489 15.6514 119.817 15.9326C120.146 16.2139 120.427 16.5449 120.661 16.9258C120.901 17.3008 121.098 17.7051 121.25 18.1387C121.408 18.5723 121.522 19.0234 121.593 19.4922C121.669 19.9609 121.71 20.4238 121.716 20.8809V22.3398ZM120.107 20.8633C120.102 20.5586 120.081 20.2422 120.046 19.9141C120.011 19.5801 119.949 19.252 119.861 18.9297C119.779 18.6016 119.668 18.291 119.527 17.998C119.387 17.6992 119.211 17.4385 119 17.2158C118.789 16.9873 118.54 16.8086 118.253 16.6797C117.966 16.5449 117.632 16.4775 117.251 16.4775C116.876 16.4775 116.545 16.5449 116.258 16.6797C115.971 16.8145 115.722 16.9961 115.511 17.2246C115.3 17.4473 115.124 17.708 114.983 18.0068C114.843 18.2998 114.729 18.6104 114.641 18.9385C114.559 19.2607 114.497 19.5889 114.456 19.9229C114.421 20.251 114.4 20.5645 114.395 20.8633V22.3398C114.4 22.6387 114.421 22.9551 114.456 23.2891C114.497 23.623 114.562 23.9541 114.649 24.2822C114.737 24.6045 114.852 24.915 114.992 25.2139C115.133 25.5127 115.309 25.7764 115.52 26.0049C115.73 26.2275 115.979 26.4062 116.267 26.541C116.554 26.6758 116.888 26.7432 117.269 26.7432C117.649 26.7432 117.983 26.6758 118.271 26.541C118.563 26.4062 118.812 26.2275 119.018 26.0049C119.229 25.7764 119.401 25.5156 119.536 25.2227C119.677 24.9238 119.788 24.6133 119.87 24.291C119.958 23.9629 120.017 23.6318 120.046 23.2979C120.081 22.9639 120.102 22.6445 120.107 22.3398V20.8633ZM128.439 22.7793H125.882V28H124.265V15.2031H128.018C128.615 15.2148 129.178 15.2998 129.705 15.458C130.232 15.6162 130.692 15.8535 131.085 16.1699C131.483 16.4863 131.794 16.8848 132.017 17.3652C132.245 17.8398 132.359 18.3994 132.359 19.0439C132.359 19.46 132.298 19.8408 132.175 20.1865C132.058 20.5322 131.894 20.8457 131.683 21.127C131.472 21.4082 131.22 21.6572 130.927 21.874C130.634 22.0908 130.312 22.2754 129.96 22.4277L132.676 27.8945L132.667 28H130.953L128.439 22.7793ZM125.882 21.4434H128.062C128.425 21.4375 128.768 21.3818 129.09 21.2764C129.412 21.165 129.693 21.0068 129.934 20.8018C130.18 20.5967 130.373 20.3477 130.514 20.0547C130.654 19.7559 130.725 19.4131 130.725 19.0264C130.725 18.6162 130.657 18.2588 130.522 17.9541C130.388 17.6436 130.2 17.3857 129.96 17.1807C129.72 16.9697 129.433 16.8115 129.099 16.7061C128.771 16.6006 128.41 16.5449 128.018 16.5391H125.882V21.4434ZM142.054 22.085H136.71V26.6201H142.941V28H135.084V15.2031H142.862V16.5918H136.71V20.7051H142.054V22.085Z" fill="#464646"/>
<rect width="20.728" height="25" fill="black" fill-opacity="0" transform="translate(15 9)"/>
<path fill-rule="evenodd" clip-rule="evenodd" d="M32.8144 24.5427C32.3793 23.4872 32.2496 22.3249 32.4407 21.1954C32.6579 19.8507 33.381 18.6482 34.4536 17.848C34.6372 17.7128 34.8296 17.5907 35.0295 17.4826C34.0618 15.944 32.4579 14.9512 30.6833 14.7925C29.1411 14.6251 26.9687 15.867 25.7893 15.8876H25.7589C24.5795 15.867 22.4083 14.6268 20.8655 14.7925C18.9347 15.0393 17.2116 16.1597 16.1663 17.848C15.5697 18.8681 15.1994 20.0111 15.0817 21.1954C15.02 21.7358 14.9932 22.2798 15.0015 22.8239C15.0086 23.3987 15.0519 23.9725 15.1311 24.5416C15.2923 25.6897 15.5877 26.8137 16.0106 27.889C16.4299 28.9619 16.9664 29.9824 17.6098 30.9306C18.9253 32.862 20.4154 33.9795 21.2543 33.999C22.9804 34.0392 24.4803 32.8274 25.7177 32.8598C25.7305 32.8631 25.7437 32.8643 25.7568 32.8632H25.7893C25.8021 32.8643 25.8149 32.8631 25.8273 32.8598C27.0653 32.8274 28.5657 34.0386 30.2928 33.999C31.1317 33.9795 32.6246 32.862 33.9374 30.9306C34.5806 29.9822 35.117 28.9618 35.5365 27.889C35.6027 27.7186 35.6665 27.5459 35.728 27.3707C34.4042 26.9072 33.3412 25.8754 32.8144 24.5427ZM28.8054 13.092C30.1307 11.4635 30.0797 9.1187 29.9599 9.01494C29.84 8.91117 27.6487 9.32791 26.2904 10.9028C24.932 12.4778 25.0171 14.8762 25.1364 14.9799C25.2557 15.0837 27.4806 14.7205 28.8054 13.092Z" fill="#464646"/>
</svg>
