<svg width="180" height="44" viewBox="0 0 180 44" fill="none" xmlns="http://www.w3.org/2000/svg">
<rect width="180" height="44" fill="black" fill-opacity="0"/>
<rect width="180" height="44" rx="10" fill="#E5E5E5"/>
<path d="M57.8086 26.3213C57.2695 26.9541 56.6514 27.4229 55.9541 27.7275C55.2568 28.0322 54.4922 28.1816 53.6602 28.1758C53.1328 28.1699 52.6465 28.0908 52.2012 27.9385C51.7617 27.7803 51.3662 27.5664 51.0146 27.2969C50.6631 27.0215 50.3555 26.6992 50.0918 26.3301C49.8281 25.9609 49.6055 25.5625 49.4238 25.1348C49.248 24.7012 49.1133 24.25 49.0195 23.7812C48.9316 23.3066 48.8848 22.8291 48.8789 22.3486V20.8633C48.8848 20.3887 48.9258 19.917 49.002 19.4482C49.084 18.9736 49.207 18.5195 49.3711 18.0859C49.5352 17.6523 49.7402 17.251 49.9863 16.8818C50.2324 16.5068 50.5254 16.1846 50.8652 15.915C51.2109 15.6396 51.6006 15.4229 52.0342 15.2646C52.4678 15.1064 52.9541 15.0273 53.4932 15.0273C54.0908 15.0273 54.6416 15.1211 55.1455 15.3086C55.6494 15.4902 56.0889 15.7539 56.4639 16.0996C56.8389 16.4395 57.1406 16.8525 57.3691 17.3389C57.5977 17.8193 57.7383 18.3584 57.791 18.9561H56.1826C56.1182 18.5869 56.0186 18.2471 55.8838 17.9365C55.749 17.6201 55.5703 17.3506 55.3477 17.1279C55.1309 16.9053 54.8701 16.7324 54.5654 16.6094C54.2607 16.4805 53.9062 16.416 53.502 16.416C53.1152 16.416 52.7725 16.4834 52.4736 16.6182C52.1748 16.7471 51.9141 16.9229 51.6914 17.1455C51.4688 17.3682 51.2842 17.6289 51.1377 17.9277C50.9912 18.2207 50.8711 18.5312 50.7773 18.8594C50.6836 19.1875 50.6162 19.5215 50.5752 19.8613C50.5342 20.2012 50.5137 20.5293 50.5137 20.8457V22.3486C50.5195 22.6709 50.5459 23.0049 50.5928 23.3506C50.6455 23.6904 50.7246 24.0244 50.8301 24.3525C50.9355 24.6807 51.0703 24.9912 51.2344 25.2842C51.3984 25.5771 51.5947 25.835 51.8232 26.0576C52.0576 26.2803 52.3271 26.459 52.6318 26.5938C52.9365 26.7227 53.2822 26.79 53.6689 26.7959C53.8916 26.8018 54.123 26.793 54.3633 26.7695C54.6094 26.7461 54.8467 26.6992 55.0752 26.6289C55.3037 26.5586 55.5176 26.4648 55.7168 26.3477C55.916 26.2246 56.083 26.0664 56.2178 25.873L56.2354 22.999H53.6338V21.6279H57.7822L57.8086 26.3213ZM68.6631 22.3398C68.6572 22.7969 68.6162 23.2598 68.54 23.7285C68.4697 24.1914 68.3584 24.6396 68.2061 25.0732C68.0537 25.5068 67.8574 25.9111 67.6172 26.2861C67.3828 26.6611 67.1016 26.9893 66.7734 27.2705C66.4453 27.5518 66.0674 27.7744 65.6396 27.9385C65.2178 28.0967 64.7432 28.1758 64.2158 28.1758C63.6885 28.1758 63.2109 28.0967 62.7832 27.9385C62.3613 27.7744 61.9863 27.5518 61.6582 27.2705C61.3301 26.9893 61.0459 26.6611 60.8057 26.2861C60.5654 25.9053 60.3662 25.498 60.208 25.0645C60.0557 24.6309 59.9414 24.1826 59.8652 23.7197C59.7891 23.2568 59.748 22.7969 59.7422 22.3398V20.8809C59.748 20.4238 59.7861 19.9639 59.8564 19.501C59.9326 19.0322 60.0469 18.5811 60.1992 18.1475C60.3574 17.7139 60.5537 17.3096 60.7881 16.9346C61.0283 16.5537 61.3125 16.2227 61.6406 15.9414C61.9688 15.6543 62.3438 15.4316 62.7656 15.2734C63.1934 15.1094 63.6709 15.0273 64.1982 15.0273C64.7256 15.0273 65.2031 15.1094 65.6309 15.2734C66.0586 15.4316 66.4365 15.6514 66.7646 15.9326C67.0928 16.2139 67.374 16.5449 67.6084 16.9258C67.8486 17.3008 68.0449 17.7051 68.1973 18.1387C68.3555 18.5723 68.4697 19.0234 68.54 19.4922C68.6162 19.9609 68.6572 20.4238 68.6631 20.8809V22.3398ZM67.0547 20.8633C67.0488 20.5586 67.0283 20.2422 66.9932 19.9141C66.958 19.5801 66.8965 19.252 66.8086 18.9297C66.7266 18.6016 66.6152 18.291 66.4746 17.998C66.334 17.6992 66.1582 17.4385 65.9473 17.2158C65.7363 16.9873 65.4873 16.8086 65.2002 16.6797C64.9131 16.5449 64.5791 16.4775 64.1982 16.4775C63.8232 16.4775 63.4922 16.5449 63.2051 16.6797C62.918 16.8145 62.6689 16.9961 62.458 17.2246C62.2471 17.4473 62.0713 17.708 61.9307 18.0068C61.79 18.2998 61.6758 18.6104 61.5879 18.9385C61.5059 19.2607 61.4443 19.5889 61.4033 19.9229C61.3682 20.251 61.3477 20.5645 61.3418 20.8633V22.3398C61.3477 22.6387 61.3682 22.9551 61.4033 23.2891C61.4443 23.623 61.5088 23.9541 61.5967 24.2822C61.6846 24.6045 61.7988 24.915 61.9395 25.2139C62.0801 25.5127 62.2559 25.7764 62.4668 26.0049C62.6777 26.2275 62.9268 26.4062 63.2139 26.541C63.501 26.6758 63.835 26.7432 64.2158 26.7432C64.5967 26.7432 64.9307 26.6758 65.2178 26.541C65.5107 26.4062 65.7598 26.2275 65.9648 26.0049C66.1758 25.7764 66.3486 25.5156 66.4834 25.2227C66.624 24.9238 66.7354 24.6133 66.8174 24.291C66.9053 23.9629 66.9639 23.6318 66.9932 23.2979C67.0283 22.9639 67.0488 22.6445 67.0547 22.3398V20.8633ZM79.4736 22.3398C79.4678 22.7969 79.4268 23.2598 79.3506 23.7285C79.2803 24.1914 79.1689 24.6396 79.0166 25.0732C78.8643 25.5068 78.668 25.9111 78.4277 26.2861C78.1934 26.6611 77.9121 26.9893 77.584 27.2705C77.2559 27.5518 76.8779 27.7744 76.4502 27.9385C76.0283 28.0967 75.5537 28.1758 75.0264 28.1758C74.499 28.1758 74.0215 28.0967 73.5938 27.9385C73.1719 27.7744 72.7969 27.5518 72.4688 27.2705C72.1406 26.9893 71.8564 26.6611 71.6162 26.2861C71.376 25.9053 71.1768 25.498 71.0186 25.0645C70.8662 24.6309 70.752 24.1826 70.6758 23.7197C70.5996 23.2568 70.5586 22.7969 70.5527 22.3398V20.8809C70.5586 20.4238 70.5967 19.9639 70.667 19.501C70.7432 19.0322 70.8574 18.5811 71.0098 18.1475C71.168 17.7139 71.3643 17.3096 71.5986 16.9346C71.8389 16.5537 72.123 16.2227 72.4512 15.9414C72.7793 15.6543 73.1543 15.4316 73.5762 15.2734C74.0039 15.1094 74.4814 15.0273 75.0088 15.0273C75.5361 15.0273 76.0137 15.1094 76.4414 15.2734C76.8691 15.4316 77.2471 15.6514 77.5752 15.9326C77.9033 16.2139 78.1846 16.5449 78.4189 16.9258C78.6592 17.3008 78.8555 17.7051 79.0078 18.1387C79.166 18.5723 79.2803 19.0234 79.3506 19.4922C79.4268 19.9609 79.4678 20.4238 79.4736 20.8809V22.3398ZM77.8652 20.8633C77.8594 20.5586 77.8389 20.2422 77.8037 19.9141C77.7686 19.5801 77.707 19.252 77.6191 18.9297C77.5371 18.6016 77.4258 18.291 77.2852 17.998C77.1445 17.6992 76.9688 17.4385 76.7578 17.2158C76.5469 16.9873 76.2979 16.8086 76.0107 16.6797C75.7236 16.5449 75.3896 16.4775 75.0088 16.4775C74.6338 16.4775 74.3027 16.5449 74.0156 16.6797C73.7285 16.8145 73.4795 16.9961 73.2686 17.2246C73.0576 17.4473 72.8818 17.708 72.7412 18.0068C72.6006 18.2998 72.4863 18.6104 72.3984 18.9385C72.3164 19.2607 72.2549 19.5889 72.2139 19.9229C72.1787 20.251 72.1582 20.5645 72.1523 20.8633V22.3398C72.1582 22.6387 72.1787 22.9551 72.2139 23.2891C72.2549 23.623 72.3193 23.9541 72.4072 24.2822C72.4951 24.6045 72.6094 24.915 72.75 25.2139C72.8906 25.5127 73.0664 25.7764 73.2773 26.0049C73.4883 26.2275 73.7373 26.4062 74.0244 26.541C74.3115 26.6758 74.6455 26.7432 75.0264 26.7432C75.4072 26.7432 75.7412 26.6758 76.0283 26.541C76.3213 26.4062 76.5703 26.2275 76.7754 26.0049C76.9863 25.7764 77.1592 25.5156 77.2939 25.2227C77.4346 24.9238 77.5459 24.6133 77.6279 24.291C77.7158 23.9629 77.7744 23.6318 77.8037 23.2979C77.8389 22.9639 77.8594 22.6445 77.8652 22.3398V20.8633ZM90.2402 26.3213C89.7012 26.9541 89.083 27.4229 88.3857 27.7275C87.6885 28.0322 86.9238 28.1816 86.0918 28.1758C85.5645 28.1699 85.0781 28.0908 84.6328 27.9385C84.1934 27.7803 83.7979 27.5664 83.4463 27.2969C83.0947 27.0215 82.7871 26.6992 82.5234 26.3301C82.2598 25.9609 82.0371 25.5625 81.8555 25.1348C81.6797 24.7012 81.5449 24.25 81.4512 23.7812C81.3633 23.3066 81.3164 22.8291 81.3105 22.3486V20.8633C81.3164 20.3887 81.3574 19.917 81.4336 19.4482C81.5156 18.9736 81.6387 18.5195 81.8027 18.0859C81.9668 17.6523 82.1719 17.251 82.418 16.8818C82.6641 16.5068 82.957 16.1846 83.2969 15.915C83.6426 15.6396 84.0322 15.4229 84.4658 15.2646C84.8994 15.1064 85.3857 15.0273 85.9248 15.0273C86.5225 15.0273 87.0732 15.1211 87.5771 15.3086C88.0811 15.4902 88.5205 15.7539 88.8955 16.0996C89.2705 16.4395 89.5723 16.8525 89.8008 17.3389C90.0293 17.8193 90.1699 18.3584 90.2227 18.9561H88.6143C88.5498 18.5869 88.4502 18.2471 88.3154 17.9365C88.1807 17.6201 88.002 17.3506 87.7793 17.1279C87.5625 16.9053 87.3018 16.7324 86.9971 16.6094C86.6924 16.4805 86.3379 16.416 85.9336 16.416C85.5469 16.416 85.2041 16.4834 84.9053 16.6182C84.6064 16.7471 84.3457 16.9229 84.123 17.1455C83.9004 17.3682 83.7158 17.6289 83.5693 17.9277C83.4229 18.2207 83.3027 18.5312 83.209 18.8594C83.1152 19.1875 83.0479 19.5215 83.0068 19.8613C82.9658 20.2012 82.9453 20.5293 82.9453 20.8457V22.3486C82.9512 22.6709 82.9775 23.0049 83.0244 23.3506C83.0771 23.6904 83.1562 24.0244 83.2617 24.3525C83.3672 24.6807 83.502 24.9912 83.666 25.2842C83.8301 25.5771 84.0264 25.835 84.2549 26.0576C84.4893 26.2803 84.7588 26.459 85.0635 26.5938C85.3682 26.7227 85.7139 26.79 86.1006 26.7959C86.3232 26.8018 86.5547 26.793 86.7949 26.7695C87.041 26.7461 87.2783 26.6992 87.5068 26.6289C87.7354 26.5586 87.9492 26.4648 88.1484 26.3477C88.3477 26.2246 88.5146 26.0664 88.6494 25.873L88.667 22.999H86.0654V21.6279H90.2139L90.2402 26.3213ZM94.6084 26.6201H100.866V28H92.9824V15.2031H94.6084V26.6201ZM110.622 22.085H105.278V26.6201H111.51V28H103.652V15.2031H111.431V16.5918H105.278V20.7051H110.622V22.085ZM126.979 22.8672V28H125.353V15.2031H129.501C130.075 15.2148 130.617 15.3057 131.127 15.4756C131.643 15.6455 132.094 15.8916 132.48 16.2139C132.867 16.5361 133.172 16.9346 133.395 17.4092C133.623 17.8838 133.737 18.4287 133.737 19.0439C133.737 19.6592 133.623 20.2041 133.395 20.6787C133.172 21.1475 132.867 21.543 132.48 21.8652C132.094 22.1875 131.643 22.4336 131.127 22.6035C130.617 22.7734 130.075 22.8613 129.501 22.8672H126.979ZM126.979 21.5312H129.501C129.876 21.5254 130.222 21.4668 130.538 21.3555C130.854 21.2383 131.13 21.0742 131.364 20.8633C131.599 20.6523 131.78 20.3975 131.909 20.0986C132.044 19.7939 132.111 19.4482 132.111 19.0615C132.111 18.6748 132.044 18.3262 131.909 18.0156C131.78 17.7051 131.599 17.4414 131.364 17.2246C131.136 17.0078 130.86 16.8408 130.538 16.7236C130.222 16.6064 129.876 16.5449 129.501 16.5391H126.979V21.5312ZM137.851 26.6201H144.108V28H136.225V15.2031H137.851V26.6201ZM152.933 24.6865H148.661L147.633 28H146.007L150.138 15.2031H151.5L155.561 28H153.943L152.933 24.6865ZM149.101 23.2715H152.502L150.814 17.7168L149.101 23.2715ZM161.405 21.6279L164.323 15.2031H166.169L162.188 23.2275L162.161 28H160.649L160.623 23.2275L156.642 15.2031H158.496L161.405 21.6279Z" fill="#464646"/>
<rect width="21.3453" height="23.9343" fill="black" fill-opacity="0" transform="translate(16 10)"/>
<path fill-rule="evenodd" clip-rule="evenodd" d="M17.2937 10.0001C17.5678 9.99746 17.7608 10.0807 17.9468 10.1892C22.5354 12.8669 27.1227 15.5467 31.7139 18.2184C31.9248 18.3416 31.9209 18.4101 31.758 18.5772C30.7311 19.6289 29.7138 20.6892 28.6959 21.7495C28.5867 21.8647 28.5189 21.9306 28.372 21.7741C24.722 17.8963 21.0657 14.0244 17.4119 10.1505C17.3812 10.1179 17.3563 10.08 17.2937 10.0001ZM16.0063 22.0101C16.0063 18.5203 16.007 15.0312 16.0044 11.5413C16.0038 11.1127 16.0843 10.722 16.375 10.3985C16.4888 10.2727 16.5699 10.2387 16.7092 10.3865C18.9629 12.7827 21.2224 15.1729 23.4813 17.5638C24.9446 19.112 26.4066 20.6616 27.8756 22.2031C28.0181 22.3529 28.0303 22.4314 27.8795 22.5879C24.2871 26.3086 20.6978 30.0334 17.1169 33.7682C16.8984 33.9958 16.7444 33.9718 16.5348 33.8034C16.152 33.4966 16.0044 33.0846 16.0044 32.594C16.005 30.5273 16.0018 28.4606 16.0006 26.3938C15.9993 24.9328 16.0006 23.4711 16.0006 22.0101H16.0063ZM18.3208 33.6791C21.6513 30.1726 24.9836 26.6689 28.3058 23.1538C28.5121 22.9361 28.6086 22.9654 28.7933 23.1657C29.6368 24.081 30.4937 24.9842 31.3538 25.8828C31.5052 26.0412 31.5173 26.1058 31.3122 26.2229C27.0373 28.6604 22.7657 31.1052 18.4934 33.548C18.4224 33.5886 18.3572 33.6545 18.3208 33.6791ZM37.3453 22.1069C37.3312 22.5003 37.153 22.7766 36.8833 22.9836C36.6839 23.1367 36.4641 23.2625 36.2462 23.3883C34.9542 24.1324 33.6577 24.8699 32.3682 25.6194C32.1937 25.7206 32.0902 25.7159 31.9464 25.5608C31.0282 24.573 30.1016 23.5926 29.1706 22.6188C29.0345 22.477 29.0313 22.3992 29.17 22.2567C30.255 21.1431 31.3349 20.0229 32.4091 18.898C32.5362 18.7656 32.6263 18.7509 32.7841 18.8441C34.0609 19.5976 35.344 20.3411 36.6245 21.0879C37.02 21.3195 37.3287 21.6184 37.3453 22.1069Z" fill="#464646"/>
</svg>
